<mxfile host="app.diagrams.net" modified="2022-07-15T18:24:24.571Z" agent="5.0 (Windows NT 10.0; Win64; x64) AppleWebKit/537.36 (KHTML, like Gecko) Chrome/103.0.0.0 Safari/537.36" etag="nCodk5-LDhIrwRSGlqQP" version="20.1.1" type="github">
  <diagram id="EIuyb5-BmrAwUo-WqTiV" name="Page-1">
    <mxGraphModel dx="3761" dy="705" grid="1" gridSize="10" guides="1" tooltips="1" connect="1" arrows="1" fold="1" page="1" pageScale="1" pageWidth="2339" pageHeight="3300" math="0" shadow="0">
      <root>
        <mxCell id="0" />
        <mxCell id="1" parent="0" />
        <mxCell id="e0T0HAkhLr4hXiV8m7bj-5" value="&lt;font style=&quot;font-size: 18px;&quot;&gt;evalucaion de diagnostico&lt;br&gt;&lt;br&gt;&lt;/font&gt;" style="text;html=1;align=center;verticalAlign=middle;resizable=0;points=[];autosize=1;strokeColor=none;fillColor=none;" vertex="1" parent="1">
          <mxGeometry x="-230" y="40" width="230" height="60" as="geometry" />
        </mxCell>
        <mxCell id="e0T0HAkhLr4hXiV8m7bj-6" value="material de lectura&lt;br&gt;" style="text;html=1;align=center;verticalAlign=middle;resizable=0;points=[];autosize=1;strokeColor=none;fillColor=none;fontSize=18;" vertex="1" parent="1">
          <mxGeometry x="-205" y="100" width="170" height="40" as="geometry" />
        </mxCell>
        <mxCell id="e0T0HAkhLr4hXiV8m7bj-7" value="evaluacion&lt;br&gt;" style="text;html=1;align=center;verticalAlign=middle;resizable=0;points=[];autosize=1;strokeColor=none;fillColor=none;fontSize=18;" vertex="1" parent="1">
          <mxGeometry x="-175" y="180" width="110" height="40" as="geometry" />
        </mxCell>
        <mxCell id="e0T0HAkhLr4hXiV8m7bj-8" value="resumen&lt;br&gt;" style="text;html=1;align=center;verticalAlign=middle;resizable=0;points=[];autosize=1;strokeColor=none;fillColor=none;fontSize=18;" vertex="1" parent="1">
          <mxGeometry x="-165" y="260" width="90" height="40" as="geometry" />
        </mxCell>
        <mxCell id="e0T0HAkhLr4hXiV8m7bj-9" value="master class&lt;br&gt;" style="text;html=1;align=center;verticalAlign=middle;resizable=0;points=[];autosize=1;strokeColor=none;fillColor=none;fontSize=18;" vertex="1" parent="1">
          <mxGeometry x="-180" y="340" width="120" height="40" as="geometry" />
        </mxCell>
        <mxCell id="e0T0HAkhLr4hXiV8m7bj-10" value="foro" style="text;html=1;align=center;verticalAlign=middle;resizable=0;points=[];autosize=1;strokeColor=none;fillColor=none;fontSize=18;" vertex="1" parent="1">
          <mxGeometry x="-145" y="410" width="50" height="40" as="geometry" />
        </mxCell>
        <mxCell id="e0T0HAkhLr4hXiV8m7bj-11" value="desafio de subir modulo" style="text;html=1;align=center;verticalAlign=middle;resizable=0;points=[];autosize=1;strokeColor=none;fillColor=none;fontSize=18;" vertex="1" parent="1">
          <mxGeometry x="-225" y="490" width="210" height="40" as="geometry" />
        </mxCell>
        <mxCell id="e0T0HAkhLr4hXiV8m7bj-14" value="" style="shape=singleArrow;whiteSpace=wrap;html=1;arrowWidth=0.4;arrowSize=0.4;fontSize=18;" vertex="1" parent="1">
          <mxGeometry x="-40" y="90" width="80" height="60" as="geometry" />
        </mxCell>
        <mxCell id="e0T0HAkhLr4hXiV8m7bj-15" value="" style="shape=singleArrow;whiteSpace=wrap;html=1;arrowWidth=0.4;arrowSize=0.4;fontSize=18;" vertex="1" parent="1">
          <mxGeometry x="-80" y="170" width="80" height="60" as="geometry" />
        </mxCell>
        <mxCell id="e0T0HAkhLr4hXiV8m7bj-16" value="" style="shape=singleArrow;whiteSpace=wrap;html=1;arrowWidth=0.4;arrowSize=0.4;fontSize=18;" vertex="1" parent="1">
          <mxGeometry x="-40" y="250" width="80" height="60" as="geometry" />
        </mxCell>
        <mxCell id="e0T0HAkhLr4hXiV8m7bj-17" value="" style="shape=singleArrow;whiteSpace=wrap;html=1;arrowWidth=0.4;arrowSize=0.4;fontSize=18;" vertex="1" parent="1">
          <mxGeometry x="-40" y="330" width="80" height="60" as="geometry" />
        </mxCell>
        <mxCell id="e0T0HAkhLr4hXiV8m7bj-18" value="" style="shape=singleArrow;whiteSpace=wrap;html=1;arrowWidth=0.4;arrowSize=0.4;fontSize=18;" vertex="1" parent="1">
          <mxGeometry x="-40" y="400" width="80" height="60" as="geometry" />
        </mxCell>
        <mxCell id="e0T0HAkhLr4hXiV8m7bj-19" value="" style="shape=singleArrow;whiteSpace=wrap;html=1;arrowWidth=0.4;arrowSize=0.4;fontSize=18;" vertex="1" parent="1">
          <mxGeometry x="-40" y="480" width="80" height="60" as="geometry" />
        </mxCell>
      </root>
    </mxGraphModel>
  </diagram>
</mxfile>
